<svg width="400" height="300" viewBox="0 0 400 300" fill="none" xmlns="http://www.w3.org/2000/svg">
  <rect width="400" height="300" fill="#1e293b" rx="8"/>
  <rect x="20" y="20" width="360" height="260" fill="#334155" rx="4"/>
  
  <!-- Tutorial Icon -->
  <circle cx="200" cy="120" r="40" fill="#3b82f6" opacity="0.2"/>
  <path d="M185 110 L215 110 L215 140 L185 140 Z" fill="#3b82f6" opacity="0.6"/>
  <path d="M190 115 L210 115 L210 125 L190 125 Z" fill="#60a5fa"/>
  <path d="M190 130 L205 130 L205 135 L190 135 Z" fill="#60a5fa"/>
  
  <!-- Text -->
  <rect x="150" y="180" width="100" height="8" fill="#64748b" rx="4"/>
  <rect x="170" y="195" width="60" height="6" fill="#64748b" opacity="0.6" rx="3"/>
  <rect x="180" y="205" width="40" height="6" fill="#64748b" opacity="0.4" rx="3"/>
  
  <!-- Decorative elements -->
  <circle cx="80" cy="80" r="3" fill="#3b82f6" opacity="0.3"/>
  <circle cx="320" cy="100" r="2" fill="#8b5cf6" opacity="0.4"/>
  <circle cx="90" cy="220" r="2" fill="#06b6d4" opacity="0.3"/>
  <circle cx="310" cy="200" r="3" fill="#10b981" opacity="0.3"/>
</svg>